<svg width="800" height="499" viewBox="0 0 800 499" fill="none" xmlns="http://www.w3.org/2000/svg">
<rect width="800" height="499" fill="#1E1E1E"/>
<g clip-path="url(#clip0_0_1)">
<rect width="498" height="800" transform="matrix(0 -1 1 0 0 498.5)" fill="white"/>
<path d="M728 74.0029H72V190.003H339.5V282.003H290V426.503H520.5V282.003H465V190.003H728V74.0029Z" stroke="black"/>
<line x1="72.0019" y1="159.503" x2="339.002" y2="160.522" stroke="black"/>
<line x1="339.5" y1="75.0029" x2="339.5" y2="160.003" stroke="black"/>
<line x1="465" y1="159.503" x2="728" y2="159.503" stroke="black"/>
<line x1="465" y1="160.006" x2="465" y2="73" stroke="black"/>
<path d="M375.5 190.003V234.503H340" stroke="black"/>
<line x1="341" y1="225.503" x2="374" y2="225.503" stroke="black"/>
<line x1="341" y1="207.503" x2="374" y2="207.503" stroke="black"/>
<line x1="341" y1="216.503" x2="374" y2="216.503" stroke="black"/>
<line x1="341" y1="198.503" x2="374" y2="198.503" stroke="black"/>
</g>
<defs>
<clipPath id="clip0_0_1">
<rect width="498" height="800" fill="white" transform="matrix(0 -1 1 0 0 498.5)"/>
</clipPath>
</defs>
</svg>
